<svg xmlns="http://www.w3.org/2000/svg" viewBox="0 0 24 24" id="earbuds"><path fill="#bad7ff" d="m9.145,4.173c-1.021-.812-2.348-1.105-3.646-.808-.683.158-1.136.492-1.354.653-.984.72-1.895,1.701-1.895,3.982,0,2.471,1.606,2.988,2.897,3.403l.152.049c.578.188.951.656.951,1.193v5.855c0,1.24,1.009,2.25,2.25,2.25s2.25-1.01,2.25-2.25V7.5c0-1.303-.585-2.516-1.605-3.327Z"></path><path fill="#549bff" d="m18.533,3.374c-.735-.202-1.504-.18-2.296.067-1.787.556-2.987,2.187-2.987,4.059v11c0,1.24,1.009,2.25,2.25,2.25s2.25-1.01,2.25-2.25v-5.68c0-.585.359-1.107.853-1.24,1.1-.297,3.147-.851,3.147-3.58,0-2.205-1.323-4.108-3.217-4.626Z"></path></svg>