<svg xmlns="http://www.w3.org/2000/svg" viewBox="0 0 32 32" id="smartwatch"><path fill="#96d7ff" d="M23.11,2.72a2,2,0,0,0-2-1.72H10.87a2,2,0,0,0-2,1.72L7,15.71a1.82,1.82,0,0,0,0,.57l1.86,13a2,2,0,0,0,2,1.72H21.13a2,2,0,0,0,2-1.72l1.86-13a1.82,1.82,0,0,0,0-.57Z"></path><path fill="#86c3ef" d="M25,15.72a1.82,1.82,0,0,1,0,.57L23.44,27l-.33,2.28a2,2,0,0,1-2,1.72H16V1h5.13a2,2,0,0,1,2,1.72L23.44,5Z"></path><rect width="22" height="22" x="5" y="5" fill="#eef5fd" rx="3" ry="3"></rect><path fill="#d7e2f2" d="M27,8V24a3,3,0,0,1-3,3H16V5h8A3,3,0,0,1,27,8Z"></path><path fill="#ffc661" d="M18.83,19.82a1,1,0,0,1-.71-.29L15.29,16.7A1,1,0,0,1,15,16V12a1,1,0,0,1,2,0v3.59l2.53,2.53a1,1,0,0,1-.7,1.71Z"></path><path fill="#e49f4e" d="M19.53,19.53a1,1,0,0,1-1.41,0L16,17.41V11a1,1,0,0,1,1,1v3.59l2.53,2.53A1,1,0,0,1,19.53,19.53Z"></path></svg>